<?xml version="1.0" encoding="UTF-8"?>
<svg version="1.1" xmlns="http://www.w3.org/2000/svg" width="512" height="512">
<path d="M0 0 C4.18826669 2.78206121 6.82172938 7.13521143 9.61328125 11.2265625 C11.22790466 13.7229743 11.22790466 13.7229743 13.3125 15.6875 C14.42625 14.7284375 14.42625 14.7284375 15.5625 13.75 C20.03142288 10.39830784 23.75167425 10.22409785 29.3125 10.6875 C33.63571875 12.10163697 36.62994669 13.93309897 39.6875 17.3125 C46.28691478 31.01897684 43.96747842 47.72256474 39.3125 61.6875 C40.17875 61.77 41.045 61.8525 41.9375 61.9375 C47.11596175 63.08826928 50.188568 65.38130875 53.625 69.375 C56.44604082 74.91259865 56.94601699 79.45155767 55.25 85.4375 C52.22678392 90.50870117 49.11615136 92.98438167 43.625 95.125 C39.23799094 96.03582664 35.43185265 95.12785994 31.10546875 94.21484375 C22.44256756 92.57919108 13.66117725 93.39529694 6.046875 98.08203125 C-0.63192472 102.85230427 -0.63192472 102.85230427 -4.6875 109.6875 C-3.96433594 109.93113281 -3.24117188 110.17476563 -2.49609375 110.42578125 C9.27611085 115.71426816 17.49988579 128.23317834 22.3125 139.6875 C23.51004126 143.38140838 24.23159303 147.00414925 24.41821289 150.88696289 C24.78614306 158.2355808 27.305152 163.91969307 30.4375 170.5 C47.29490271 207.30989024 47.29490271 207.30989024 46.3125 222.6875 C45.92835938 223.44933594 45.54421875 224.21117187 45.1484375 224.99609375 C43.82114908 229.2694663 45.5198955 232.62685515 46.9375 236.75 C62.23110425 284.70200372 58.66081613 337.72662675 38.3125 383.6875 C38.03889648 384.33138672 37.76529297 384.97527344 37.48339844 385.63867188 C30.6184077 401.75243818 20.98791274 416.07462694 10.4375 430 C9.92678955 430.67482422 9.4160791 431.34964844 8.88989258 432.04492188 C5.81312124 436.01237689 2.53160371 439.60150601 -1.0847168 443.0847168 C-2.71012822 444.71012822 -4.1705546 446.40873842 -5.625 448.1875 C-8.95753902 452.13231653 -12.7352871 455.37851638 -16.6875 458.6875 C-17.62078125 459.48542969 -18.5540625 460.28335937 -19.515625 461.10546875 C-54.22212343 490.5170014 -99.70937956 510.47449216 -145.65625 510.92578125 C-146.48619476 510.93552979 -147.31613953 510.94527832 -148.17123413 510.95532227 C-166.72973397 511.12843251 -184.50708432 510.8417557 -202.6875 506.6875 C-203.52249023 506.50558105 -204.35748047 506.32366211 -205.21777344 506.13623047 C-244.79144355 497.35341872 -280.12952703 476.11054091 -308.6875 447.6875 C-309.24920898 447.12981934 -309.81091797 446.57213867 -310.38964844 445.99755859 C-345.68303246 410.52822515 -368.34948594 358.77576549 -369.6875 308.6875 C-369.70796387 307.95063965 -369.72842773 307.2137793 -369.74951172 306.45458984 C-370.22897446 286.3765921 -368.16633442 267.38259523 -363.80859375 247.78515625 C-363.61015869 246.88152344 -363.41172363 245.97789062 -363.20727539 245.046875 C-362.81831485 243.28129742 -362.4225871 241.51720829 -362.0234375 239.75390625 C-361.58942174 235.79225076 -361.71206495 231.91239011 -361.80419922 227.93139648 C-362.52363607 193.6986063 -351.00065683 162.73729398 -327.29980469 137.90136719 C-307.18262358 117.37592263 -278.07528157 102.13092664 -248.82958984 101.62011719 C-245.11515073 101.60649786 -241.40164327 101.63835427 -237.6875 101.6875 C-237.93918945 100.60557373 -238.19087891 99.52364746 -238.45019531 98.40893555 C-239.40644242 94.29595034 -240.36006119 90.18235908 -241.31298828 86.06860352 C-241.72147964 84.30672503 -242.13063242 82.54499974 -242.54052734 80.78344727 C-243.94276105 74.75590951 -245.32429955 68.72398398 -246.6875 62.6875 C-246.98394409 61.38307953 -246.98394409 61.38307953 -247.28637695 60.05230713 C-247.86211611 57.50176364 -248.42515827 54.94874249 -248.984375 52.39453125 C-249.15680725 51.63540939 -249.3292395 50.87628754 -249.50689697 50.09416199 C-250.56193901 45.1906964 -250.99018452 40.70730174 -250.6875 35.6875 C-246.78380082 30.48543391 -240.09792881 30.37539573 -234.0625 29.5 C-233.03253906 29.33564453 -232.00257813 29.17128906 -230.94140625 29.00195312 C-170.54848239 19.62015929 -108.87344604 33.55368777 -57.6875 66.6875 C-56.34472406 67.67478443 -55.00837995 68.67110739 -53.6875 69.6875 C-53.74659316 67.76093255 -53.74659316 67.76093255 -54.6875 65.6875 C-57.28440775 64.09635838 -57.28440775 64.09635838 -60.4375 62.8125 C-65.62340099 60.37679145 -68.59166453 58.49138263 -71.6875 53.6875 C-73.40987197 48.5203841 -73.34311622 43.58150242 -71.5625 38.4375 C-68.7127053 34.2578011 -65.58157029 31.31885676 -60.6875 29.6875 C-54.67934695 29.17793278 -49.44802996 30.01170947 -43.6875 31.6875 C-42.96046875 30.61822266 -42.96046875 30.61822266 -42.21875 29.52734375 C-38.01056541 23.51449538 -33.79711916 17.8896559 -27.6875 13.6875 C-27.0275 13.6875 -26.3675 13.6875 -25.6875 13.6875 C-25.64625 12.841875 -25.605 11.99625 -25.5625 11.125 C-24.27647714 6.07276735 -21.24596868 2.30393837 -16.8203125 -0.4921875 C-11.37182864 -2.58775821 -5.3801447 -1.91496676 0 0 Z " fill="#35373B" transform="translate(451.6875,1.3125)"/>
<path d="M0 0 C0.71639648 -0.00367584 1.43279297 -0.00735168 2.17089844 -0.01113892 C43.26616476 -0.12104759 79.80986102 14.50816048 109.5 42.75 C110.7065625 44.0184375 110.7065625 44.0184375 111.9375 45.3125 C112.93523437 46.33537109 112.93523437 46.33537109 113.953125 47.37890625 C120.01849226 53.80530728 124.61441159 60.62111572 128.9375 68.3125 C129.55753906 69.39273438 130.17757813 70.47296875 130.81640625 71.5859375 C140.61391272 89.7420078 146.03508412 115.00186703 140.6875 135.375 C140.13608788 137.03180108 139.55351111 138.67861645 138.9375 140.3125 C138.50244141 141.60027344 138.50244141 141.60027344 138.05859375 142.9140625 C133.15727166 156.49010945 123.16532551 165.29596365 110.42504883 171.51245117 C84.66298148 183.37240027 55.14156347 183.46942708 27.3203125 183.48046875 C25.36904885 183.48369655 23.41778541 183.48706164 21.46652222 183.49055481 C17.39727215 183.49649711 13.32804315 183.49839994 9.25878906 183.49780273 C5.14578836 183.49772173 1.03289963 183.50463147 -3.08007812 183.51831055 C-63.03345672 183.71468746 -63.03345672 183.71468746 -86.0625 178.3125 C-87.91101563 177.91611328 -87.91101563 177.91611328 -89.796875 177.51171875 C-106.37735522 173.60739405 -120.91362078 166.37530817 -130.52734375 151.921875 C-136.79024886 141.27652992 -138.43992172 130.36959782 -138.375 118.1875 C-138.36936035 117.08092041 -138.3637207 115.97434082 -138.35791016 114.83422852 C-137.91564091 84.89785524 -123.69162566 59.30154279 -102.75048828 38.57861328 C-84.64233475 21.35011438 -60.38037891 9.5133308 -36.19482422 3.81640625 C-34.23877869 3.3541578 -32.29253523 2.8509319 -30.34765625 2.34375 C-20.29942402 0.10389638 -10.25000938 0.02512529 0 0 Z " fill="#FDFDFD" transform="translate(293.0625,264.6875)"/>
<path d="M0 0 C2.57542682 1.01661585 3.66432726 1.78601593 5.375 3.9375 C5.73576355 6.04460144 5.73576355 6.04460144 5.71557617 8.50073242 C5.71523628 9.88182442 5.71523628 9.88182442 5.71488953 11.29081726 C5.69940567 12.28152725 5.68392181 13.27223724 5.66796875 14.29296875 C5.66372391 15.30974197 5.65947906 16.3265152 5.65510559 17.37409973 C5.63829997 20.62466812 5.60064382 23.8746187 5.5625 27.125 C5.54745562 29.32746501 5.53376679 31.52993973 5.52148438 33.73242188 C5.48839036 39.13432572 5.43817223 44.53586872 5.375 49.9375 C6.74785156 50.02837891 6.74785156 50.02837891 8.1484375 50.12109375 C9.33695313 50.20488281 10.52546875 50.28867188 11.75 50.375 C12.93335938 50.45621094 14.11671875 50.53742188 15.3359375 50.62109375 C18.375 50.9375 18.375 50.9375 20.375 51.9375 C20.36833817 51.36787033 20.36167633 50.79824066 20.35481262 50.21134949 C20.28851881 44.29061519 20.24322433 38.36998607 20.21020508 32.44897461 C20.19510475 30.23831908 20.17462291 28.02769357 20.14868164 25.81713867 C20.11235345 22.64234007 20.09528616 19.46793703 20.08203125 16.29296875 C20.06654739 15.30225876 20.05106354 14.31154877 20.03511047 13.29081726 C20.03488388 12.37008926 20.03465729 11.44936127 20.03442383 10.50073242 C20.02776199 9.6902092 20.02110016 8.87968597 20.01423645 8.04460144 C20.46709751 5.39958868 21.23750638 4.52095258 23.375 2.9375 C27.45294425 2.51271414 28.90576119 2.62467413 32.375 4.9375 C33.4105989 8.04429671 33.52396257 10.26310154 33.56445312 13.52294922 C33.58117065 14.66778778 33.59788818 15.81262634 33.6151123 16.99215698 C33.62868774 18.22966705 33.64226318 19.46717712 33.65625 20.7421875 C33.67465942 22.0134549 33.69306885 23.28472229 33.71203613 24.59451294 C33.77087352 28.66712837 33.82381835 32.73978326 33.875 36.8125 C33.94238091 42.16415345 34.01637025 47.51566668 34.09375 52.8671875 C34.10732544 54.10064911 34.12090088 55.33411072 34.1348877 56.60494995 C34.15160522 57.75609283 34.16832275 58.90723572 34.18554688 60.09326172 C34.19807495 61.10347382 34.21060303 62.11368591 34.22351074 63.1545105 C34.37008301 65.84717059 34.82209652 68.30346998 35.375 70.9375 C35.49153329 73.7011046 35.56257271 76.43916624 35.578125 79.203125 C35.58382507 79.99595886 35.58952515 80.78879272 35.59539795 81.60565186 C35.6048179 83.27989378 35.61136995 84.954154 35.61523438 86.62841797 C35.62491557 89.16537571 35.65595675 91.70151412 35.6875 94.23828125 C35.81892449 114.2498495 35.81892449 114.2498495 29.015625 121.5859375 C24.31535039 125.45806849 19.33741017 128.08119166 13.20043945 127.99267578 C11.93804443 127.97446777 10.67564941 127.95625977 9.375 127.9375 C9.28966605 134.37943548 9.27462325 140.81882325 9.30786133 147.26123047 C9.31093873 149.45137118 9.29807445 151.64159577 9.26879883 153.83154297 C9.22942648 156.98562588 9.24787043 160.13496258 9.27734375 163.2890625 C9.25276596 164.26428864 9.22818817 165.23951477 9.2028656 166.24429321 C9.26241919 169.07864715 9.41121331 171.26768248 10.375 173.9375 C12.52593002 175.9928874 14.62679415 177.36099132 17.23770142 178.77734375 C19.8651995 180.2035873 21.23377023 181.79215396 22.8125 184.3125 C23.49119141 185.34503906 23.49119141 185.34503906 24.18359375 186.3984375 C27.10413243 192.62253633 27.66948824 198.74273323 27.63569641 205.50094604 C27.64143473 206.73793202 27.64143473 206.73793202 27.64728898 207.99990761 C27.65754836 210.74333143 27.65364034 213.48654319 27.6496582 216.22998047 C27.65400859 218.20505974 27.65919283 220.18013732 27.66514587 222.1552124 C27.67851202 227.5064982 27.67911718 232.85771327 27.67658257 238.20901251 C27.67551123 242.68206794 27.68040043 247.15510917 27.685188 251.62816155 C27.69627498 262.18392195 27.69672516 272.73964676 27.69067383 283.29541016 C27.68463418 294.1722055 27.69694673 305.04887148 27.7182439 315.92564476 C27.7358771 325.2762118 27.74185853 334.62673774 27.73860615 343.97732079 C27.73679588 349.55663136 27.73940403 355.13584965 27.75332069 360.71514511 C27.76592231 365.96339103 27.76393278 371.21143572 27.75090981 376.45967865 C27.74854956 378.38087915 27.75125885 380.30209391 27.75953293 382.22327805 C27.85340954 405.72341878 27.85340954 405.72341878 20.25390625 415.11328125 C13.2597537 421.9038618 5.83378523 424.3203208 -3.67578125 424.21875 C-11.12362559 423.508492 -17.44646339 420.23646769 -22.625 414.9375 C-28.66091612 407.2707096 -29.93452516 398.94060574 -29.88569641 389.38114929 C-29.88952196 388.56929934 -29.89334751 387.75744938 -29.89728898 386.92099792 C-29.90752815 384.22680524 -29.90364425 381.53282931 -29.8996582 378.83862305 C-29.90400975 376.89619756 -29.90919437 374.95377378 -29.91514587 373.01135254 C-29.92850039 367.75296355 -29.92911843 362.4946466 -29.92658257 357.23624396 C-29.92551032 352.83788663 -29.93040279 348.43954372 -29.935188 344.04118949 C-29.9462712 333.65936593 -29.94672745 323.27757856 -29.94067383 312.89575195 C-29.93463614 302.20585888 -29.94694262 291.5160975 -29.9682439 280.82622689 C-29.98589089 271.63017176 -29.99185632 262.43415843 -29.98860615 253.238087 C-29.98679789 247.75374221 -29.98938366 242.26949134 -30.00332069 236.78516197 C-30.01594465 231.62471853 -30.01391183 226.4644795 -30.00090981 221.304039 C-29.9985543 219.41754142 -30.00124163 217.53102925 -30.00953293 215.64454842 C-30.11295141 190.27099255 -30.11295141 190.27099255 -23.21788025 181.41592407 C-21.3143473 179.6491692 -19.30008572 178.63308448 -17.01391602 177.40771484 C-14.32601451 175.64025584 -12.89264598 174.68046915 -11.79293823 171.62774658 C-11.48762942 168.81392685 -11.45603528 166.11852311 -11.52734375 163.2890625 C-11.51788223 162.27653412 -11.50842072 161.26400574 -11.49867249 160.22079468 C-11.47814126 156.99986353 -11.5194458 153.78314667 -11.5625 150.5625 C-11.55942446 148.37368836 -11.55230814 146.18487842 -11.54101562 143.99609375 C-11.52219855 138.64236384 -11.55408742 133.29075308 -11.625 127.9375 C-12.88812012 127.95425781 -14.15124023 127.97101563 -15.45263672 127.98828125 C-21.79394994 128.07241144 -26.96931219 125.50029338 -31.5234375 121.10546875 C-36.94222122 114.4046801 -37.94035975 107.04739029 -37.85546875 98.67578125 C-37.85501053 97.92209763 -37.85455231 97.168414 -37.8540802 96.39189148 C-37.85108234 94.81292121 -37.84327105 93.23395324 -37.83081055 91.6550293 C-37.81246821 89.24582396 -37.81030191 86.83700255 -37.81054688 84.42773438 C-37.80563346 82.88541336 -37.79980592 81.34309493 -37.79296875 79.80078125 C-37.79185593 79.08610184 -37.7907431 78.37142242 -37.78959656 77.63508606 C-37.76358932 74.88540046 -37.69635437 72.27525102 -37.12677002 69.5791626 C-36.57511432 66.67486747 -36.47884621 63.97310098 -36.45141602 61.01733398 C-36.43118126 59.26543007 -36.43118126 59.26543007 -36.41053772 57.47813416 C-36.40009933 56.22593582 -36.38966095 54.97373749 -36.37890625 53.68359375 C-36.35440453 51.70820108 -36.32989158 49.73280847 -36.30470943 47.75742435 C-36.24404929 42.89574167 -36.19315552 38.03397051 -36.14819336 33.17211914 C-36.1225421 30.43928705 -36.09173256 27.70660312 -36.05540466 24.97389221 C-36.02157618 22.40199566 -35.9956639 19.82998045 -35.97840881 17.25791931 C-35.96176682 16.09313553 -35.94512482 14.92835175 -35.92797852 13.72827148 C-35.91767105 12.70410629 -35.90736359 11.6799411 -35.89674377 10.6247406 C-35.61953257 7.88343327 -35.11983318 6.23581091 -33.625 3.9375 C-30.82629973 2.53814987 -28.72001208 2.68484595 -25.625 2.9375 C-23.48168945 4.51653514 -22.71729649 5.39842653 -22.26423645 8.04460144 C-22.27089828 8.85512466 -22.27756012 9.66564789 -22.28442383 10.50073242 C-22.28465042 11.42146042 -22.28487701 12.34218842 -22.28511047 13.29081726 C-22.30059433 14.28152725 -22.31607819 15.27223724 -22.33203125 16.29296875 C-22.33627609 17.30974197 -22.34052094 18.3265152 -22.34489441 19.37409973 C-22.36170003 22.62466812 -22.39935618 25.8746187 -22.4375 29.125 C-22.45254438 31.32746501 -22.46623321 33.52993973 -22.47851562 35.73242188 C-22.51160964 41.13432572 -22.56182777 46.53586872 -22.625 51.9375 C-20.8615625 51.4425 -20.8615625 51.4425 -19.0625 50.9375 C-15.1238324 49.9405467 -11.67360871 49.76880797 -7.625 49.9375 C-7.63610306 49.37009094 -7.64720612 48.80268188 -7.65864563 48.21807861 C-7.76924634 42.31351459 -7.84466958 36.40924463 -7.8996582 30.50390625 C-7.92480574 28.30000864 -7.95892827 26.09619445 -8.00219727 23.89257812 C-8.06283686 20.72505114 -8.09120749 17.5586264 -8.11328125 14.390625 C-8.13908768 13.40507629 -8.1648941 12.41952759 -8.19148254 11.40411377 C-8.19428316 4.57673222 -8.19428316 4.57673222 -5.25854492 1.28027344 C-2.625 -0.0625 -2.625 -0.0625 0 0 Z " fill="#33363A" transform="translate(41.625,80.0625)"/>
<path d="M0 0 C14.39245413 29.04268357 15.60078044 69.53961617 10 101 C9.8146167 102.08450439 9.8146167 102.08450439 9.62548828 103.19091797 C2.60062911 143.39014241 -16.79907867 179.05410776 -44.65039062 208.56689453 C-45.88551329 209.87843036 -47.10751757 211.20228837 -48.328125 212.52734375 C-71.23023691 236.55898159 -102.51601779 252.75694214 -134 262 C-134.73186523 262.22123535 -135.46373047 262.4424707 -136.21777344 262.67041016 C-153.46954379 267.85608439 -170.32787575 269.56025698 -188.25 269.4375 C-189.19466125 269.43445862 -190.13932251 269.43141724 -191.11260986 269.42828369 C-205.10703853 269.36169006 -218.43286587 268.68428596 -232 265 C-232.88187988 264.77505859 -233.76375977 264.55011719 -234.67236328 264.31835938 C-267.712021 255.85890196 -297.78809242 240.17915174 -322.81640625 216.97265625 C-324.3572179 215.58068866 -325.95244515 214.24784211 -327.58203125 212.9609375 C-329.68464836 211.2557456 -331.37836111 209.61548654 -333.125 207.5625 C-334.01058594 206.52416016 -334.01058594 206.52416016 -334.9140625 205.46484375 C-335.60242188 204.65144531 -336.29078125 203.83804688 -337 203 C-337.88211476 201.97986499 -338.76497531 200.96037457 -339.6484375 199.94140625 C-354.15203994 183.13759567 -365.15269934 164.332742 -374 144 C-374.52078125 142.84757813 -375.0415625 141.69515625 -375.578125 140.5078125 C-379.44504573 131.20685053 -381.64689058 121.55785284 -383.8125 111.75 C-384.04237106 110.71901688 -384.04237106 110.71901688 -384.27688599 109.66720581 C-387.32600973 95.85893994 -388.20247328 82.43729878 -388.1875 68.3125 C-388.1882251 67.6122168 -388.1889502 66.91193359 -388.18969727 66.19042969 C-388.18849571 55.67917812 -387.75183984 45.38590765 -386 35 C-383.30262904 37.69737096 -382.2957935 40.90319332 -380.875 44.375 C-377.69735868 51.86533444 -373.85497359 58.44531612 -369 65 C-368.07767578 66.25683594 -368.07767578 66.25683594 -367.13671875 67.5390625 C-358.24941054 79.13120365 -348.18917116 88.05758794 -336 96 C-334.55606204 97.01170653 -333.11710913 98.03064503 -331.6875 99.0625 C-330.800625 99.701875 -329.91375 100.34125 -329 101 C-329.63991162 104.85353372 -330.80711077 108.15197992 -332.3125 111.75 C-337.49328813 125.3345084 -339.37991402 137.33808209 -339.4375 151.8125 C-339.4475708 153.12331543 -339.4576416 154.43413086 -339.46801758 155.78466797 C-339.31034709 173.46389128 -333.89035932 189.19086413 -321.85546875 202.34375 C-311.27307313 212.59270364 -297.96834999 218.02427552 -284 222 C-282.52080078 222.42732422 -282.52080078 222.42732422 -281.01171875 222.86328125 C-261.03656965 228.02242572 -240.3347188 228.4574233 -219.8359375 228.3984375 C-217.29977332 228.40046676 -214.76360972 228.4033852 -212.22744751 228.40713501 C-206.28680292 228.41207201 -200.34632103 228.40177735 -194.40570033 228.3856827 C-189.0457022 228.37280805 -183.6859183 228.38193146 -178.32593381 228.3965925 C-172.43661152 228.41203399 -166.54740158 228.41016349 -160.65806961 228.4014473 C-158.19218526 228.39947322 -155.72629291 228.40180392 -153.26041794 228.40888596 C-123.57824706 228.47548167 -88.33860632 226.42029185 -63 209 C-62.38125 208.62488281 -61.7625 208.24976563 -61.125 207.86328125 C-49.74054727 200.62093967 -42.7188097 186.79293973 -38.83203125 174.22265625 C-33.92075396 151.87980324 -35.79558531 124.33342147 -47.62744141 104.2355957 C-49.28965061 100.31719326 -48.98206093 98.36488238 -48.20703125 94.21484375 C-46.91450627 86.37953399 -46.66085985 78.72444726 -46.68432617 70.79370117 C-46.68749353 68.56704955 -46.66387557 66.34172422 -46.63867188 64.11523438 C-46.60257745 55.22291298 -47.48726634 47.04992748 -49.45239258 38.37084961 C-50.33851606 32.9162322 -48.88993761 29.40389509 -46.53125 24.515625 C-46.04269531 23.49855469 -45.55414063 22.48148438 -45.05078125 21.43359375 C-44.53902344 20.38300781 -44.02726562 19.33242187 -43.5 18.25 C-42.98824219 17.18394531 -42.47648437 16.11789063 -41.94921875 15.01953125 C-38.14959206 7.14959206 -38.14959206 7.14959206 -37 6 C-35.67100843 5.66979957 -34.32945323 5.3897473 -32.984375 5.1328125 C-31.73430664 4.88954224 -31.73430664 4.88954224 -30.45898438 4.64135742 C-29.56501953 4.47095947 -28.67105469 4.30056152 -27.75 4.125 C-20.61707152 2.74531471 -13.56541213 1.24129762 -6.53125 -0.58203125 C-2.37688517 -1.26801433 -2.37688517 -1.26801433 0 0 Z " fill="#C6D9D9" transform="translate(483,231)"/>
<path d="M0 0 C0.63808594 0.47824219 1.27617187 0.95648438 1.93359375 1.44921875 C13.76620151 10.64650184 21.83202291 26.34375816 24 41 C25.37742521 56.81488203 21.30718622 69.52040706 11.6875 82 C-0.81206751 96.72337395 -21.71355318 101.66878531 -40 104 C-44.31739752 104.25965091 -48.61333749 104.28650704 -52.9375 104.25 C-54.07759521 104.24468262 -55.21769043 104.23936523 -56.39233398 104.23388672 C-64.12506354 104.14647374 -71.43258955 103.66600354 -79 102 C-80.10794922 101.81824219 -80.10794922 101.81824219 -81.23828125 101.6328125 C-98.1770789 98.59807362 -112.55235797 89.61028941 -123 76 C-124.67666567 73.41901027 -125.90264549 70.87085674 -127 68 C-127.29648438 67.31164062 -127.59296875 66.62328125 -127.8984375 65.9140625 C-133.03324148 52.11133254 -130.48159998 36.18916956 -124.71484375 23.078125 C-115.60538555 5.11295395 -100.03558953 -7.30195621 -81.43359375 -14.3515625 C-53.9459487 -23.20621525 -22.30427123 -18.68523604 0 0 Z " fill="#FD9000" transform="translate(348,314)"/>
<path d="M0 0 C13.3983604 11.00003083 22.54216554 29.02558074 25 46 C25.64140378 55.50079344 24.9506146 64.69243774 23 74 C22.89429688 74.96550781 22.78859375 75.93101562 22.6796875 76.92578125 C22.00165226 80.2252344 21.47323997 81.67580651 19 84 C13.48691204 85.89141551 7.46731405 86.08482631 1.70605469 86.66943359 C-22.64954876 89.644667 -51.9446935 102.53778622 -69.125 120.1875 C-72 122 -72 122 -73.90234375 121.94921875 C-88.22392843 118.14221523 -101.05885435 105.05754696 -108.4375 92.828125 C-118.00073901 75.51866239 -122.21053984 56.75011149 -117.4375 37.25 C-113.83354292 25.42649168 -108.29229956 15.22476698 -100 6 C-99.48179687 5.38898438 -98.96359375 4.77796875 -98.4296875 4.1484375 C-89.90823958 -5.22943735 -77.90370758 -11.23260319 -66 -15 C-65.2575 -15.24492187 -64.515 -15.48984375 -63.75 -15.7421875 C-41.47082361 -21.90271733 -17.4838821 -13.85830218 0 0 Z " fill="#84C606" transform="translate(259,170)"/>
<path d="M0 0 C0.73605469 0.00451172 1.47210938 0.00902344 2.23046875 0.01367188 C4.02868158 0.02534858 5.82685197 0.04327989 7.625 0.0625 C7.78355469 0.65417969 7.94210937 1.24585937 8.10546875 1.85546875 C9.67106947 7.15775186 11.22520722 10.45241362 15.625 14.0625 C19.79935367 16.14967683 25.07962166 15.51347749 29.625 15.0625 C32.14333503 14.00920398 33.53190698 12.88018605 35.625 11.0625 C36.285 10.7325 36.945 10.4025 37.625 10.0625 C48.14064183 17.90750263 58.27843429 26.27642642 60.625 40.0625 C60.71699024 42.1025188 60.75501741 44.14541437 60.75 46.1875 C60.75257813 47.24195313 60.75515625 48.29640625 60.7578125 49.3828125 C60.625 52.0625 60.625 52.0625 59.625 54.0625 C53.2286849 53.39586558 47.74584328 51.43088594 41.765625 49.14648438 C36.35309127 47.10487558 36.35309127 47.10487558 30.625 47.0625 C28.33569764 48.94388759 28.33569764 48.94388759 28.25 52 C28.29467796 55.0928948 28.29467796 55.0928948 30.30957031 56.6262207 C32.83976831 58.19572248 35.22767222 59.15007225 38.046875 60.10546875 C39.07167969 60.45673828 40.09648437 60.80800781 41.15234375 61.16992188 C42.21582031 61.52634766 43.27929688 61.88277344 44.375 62.25 C45.99341797 62.80204102 45.99341797 62.80204102 47.64453125 63.36523438 C50.3025508 64.27084281 52.96266964 65.16966079 55.625 66.0625 C54.6693848 68.64686814 53.71062111 71.22999301 52.75 73.8125 C52.48058594 74.54210937 52.21117187 75.27171875 51.93359375 76.0234375 C50.65134981 79.46360416 49.37882129 82.82729567 47.625 86.0625 C40.74834329 84.27565219 34.03840794 82.23821418 27.3515625 79.83203125 C24.58775539 79.05198827 22.47735196 78.76354215 19.625 79.0625 C17.27526182 80.96005144 17.27526182 80.96005144 17.5 84.1875 C17.54125 85.13625 17.5825 86.085 17.625 87.0625 C23.18190009 89.96724323 28.69265743 92.29735417 34.625 94.3125 C35.39972656 94.580625 36.17445313 94.84875 36.97265625 95.125 C38.85508951 95.77571767 40.73980725 96.41982065 42.625 97.0625 C41.48008207 99.8545453 40.33410806 102.64614888 39.1875 105.4375 C38.86201172 106.2315625 38.53652344 107.025625 38.20117188 107.84375 C37.88857422 108.60429687 37.57597656 109.36484375 37.25390625 110.1484375 C36.8218689 111.2010376 36.8218689 111.2010376 36.38110352 112.27490234 C35.83898164 113.55659959 35.24735745 114.81778511 34.625 116.0625 C27.86588795 115.65695328 22.1878541 113.57042447 15.89453125 111.12109375 C12.85626375 110.13737751 10.77650046 109.74229407 7.625 110.0625 C5.625 111.0625 5.625 111.0625 4.625 113.0625 C4.41334193 116.05961293 4.41334193 116.05961293 5.625 119.0625 C8.27384879 120.50732661 10.41969808 121.42456214 13.25 122.3125 C13.94996094 122.55484375 14.64992188 122.7971875 15.37109375 123.046875 C19.74491457 124.53997895 24.17334224 125.82398104 28.625 127.0625 C27.18176531 131.80039165 25.25273267 136.05108151 23 140.4375 C22.67515625 141.07816406 22.3503125 141.71882812 22.015625 142.37890625 C21.22242593 143.94197501 20.42422969 145.50250622 19.625 147.0625 C13.80325534 146.40896221 8.62348303 144.8149917 3.14257812 142.79101562 C-0.83396781 141.38632432 -4.15921044 140.71382568 -8.375 141.0625 C-9.79077477 142.24674326 -9.79077477 142.24674326 -9.4375 145.625 C-9.416875 146.759375 -9.39625 147.89375 -9.375 149.0625 C-1.86790416 152.55718255 5.80893833 155.34967063 13.625 158.0625 C12.18176531 162.80039165 10.25273267 167.05108151 8 171.4375 C7.67515625 172.07816406 7.3503125 172.71882812 7.015625 173.37890625 C6.22242593 174.94197501 5.42422969 176.50250622 4.625 178.0625 C-3.77057009 176.58550156 -9.88445306 173.74784574 -16.95825195 169.02319336 C-32.63463098 158.61432557 -49.37224171 152.29934045 -67.375 147.0625 C-66.82859408 143.0407555 -66.22523373 139.08017948 -65.3125 135.125 C-65.04759766 133.96677734 -65.04759766 133.96677734 -64.77734375 132.78515625 C-64.57818359 131.93244141 -64.57818359 131.93244141 -64.375 131.0625 C-63.055 130.7325 -61.735 130.4025 -60.375 130.0625 C-59.17511955 124.78050407 -59.17511955 124.78050407 -61.375 120.0625 C-60.99061649 112.246702 -59.09709932 104.67656177 -57.375 97.0625 C-56.78976562 97.55105469 -56.20453125 98.03960937 -55.6015625 98.54296875 C-52.4545567 100.69066218 -50.09681698 100.40711268 -46.375 100.0625 C-44.05936913 98.17749729 -44.05936913 98.17749729 -44.125 95.0625 C-44.05936913 91.94750271 -44.05936913 91.94750271 -46.375 90.0625 C-48.58572977 89.81996187 -48.58572977 89.81996187 -51 89.9375 C-51.81726563 89.95554687 -52.63453125 89.97359375 -53.4765625 89.9921875 C-54.10304688 90.01539063 -54.72953125 90.03859375 -55.375 90.0625 C-54.77609142 84.30125989 -53.67513867 78.9486255 -52.125 73.375 C-50.2382816 66.42357033 -48.50316763 59.45377403 -46.875 52.4375 C-38.25223343 15.88571018 -38.25223343 15.88571018 -24.375 6.0625 C-16.2887759 1.17173701 -9.32056506 -0.10955456 0 0 Z " fill="#FC8003" transform="translate(403.375,110.9375)"/>
<path d="M0 0 C20.13569117 17.26591925 34.07412056 41.09668842 37.3125 67.625 C37.52422318 72.51954169 37.49760454 77.413784 37.5 82.3125 C37.51224609 83.61123047 37.52449219 84.90996094 37.53710938 86.24804688 C37.55062398 95.21724214 37.16977202 104.05318393 34.3125 112.625 C25.4025 112.295 16.4925 111.965 7.3125 111.625 C8.3025 107.665 9.2925 103.705 10.3125 99.625 C14.40361844 77.20758494 9.66756196 55.17054464 -2.83984375 36.17578125 C-5.15812948 32.97527262 -7.68816145 30.05287218 -10.40234375 27.18359375 C-11.6875 25.625 -11.6875 25.625 -11.6875 23.625 C-12.27917969 23.35945313 -12.87085938 23.09390625 -13.48046875 22.8203125 C-15.7443542 21.59420817 -17.1764407 20.30259885 -19 18.5 C-36.15074466 3.25489364 -58.74426675 -0.26565631 -80.85546875 0.45458984 C-93.62973201 1.2232481 -104.70177897 6.42107414 -115.6875 12.625 C-116.53957031 13.09679687 -117.39164063 13.56859375 -118.26953125 14.0546875 C-136.90727559 25.40524171 -148.30583391 45.46852441 -153.50537109 66.13354492 C-156.35971983 79.12496174 -155.67845572 92.97624519 -151.6875 105.625 C-151.3471875 106.76195312 -151.006875 107.89890625 -150.65625 109.0703125 C-146.94754925 120.47206143 -141.25572274 130.46571425 -132.9375 139.13671875 C-131.6875 140.625 -131.6875 140.625 -131.6875 142.625 C-130.80578125 143.02138672 -130.80578125 143.02138672 -129.90625 143.42578125 C-127.60975788 144.66701907 -126.06681647 146.01148838 -124.1875 147.8125 C-119.21230348 152.29771505 -113.53692505 155.41756526 -107.6875 158.625 C-108.95226464 162.21469964 -110.34364954 164.66254737 -112.9375 167.4375 C-116.46201869 171.31668723 -119.60986641 175.38620795 -122.6875 179.625 C-144.93498541 171.6911541 -161.98973088 149.26166139 -171.74169922 128.73291016 C-174.22356319 123.20156954 -176.18581782 117.49848902 -177.6875 111.625 C-177.94571533 110.62364014 -178.20393066 109.62228027 -178.4699707 108.59057617 C-180.56732853 99.7587772 -181.1966326 91.37374163 -181.125 82.3125 C-181.12162628 81.63557098 -181.11825256 80.95864197 -181.11477661 80.26119995 C-180.99067246 63.0300116 -177.37061481 48.99518387 -169.6875 33.625 C-169.38859863 33.02059082 -169.08969727 32.41618164 -168.78173828 31.79345703 C-155.93995321 6.33908045 -132.53462234 -12.47476092 -105.69506836 -21.46289062 C-68.29376577 -33.42566131 -29.94206088 -24.82747946 0 0 Z " fill="#9E7E3B" transform="translate(283.6875,141.375)"/>
<path d="M0 0 C0.33 0 0.66 0 1 0 C1.57413748 20.52009887 1.57413748 20.52009887 -2 30 C-2.29003906 30.85851562 -2.58007812 31.71703125 -2.87890625 32.6015625 C-7.78022834 46.17760945 -17.77217449 54.98346365 -30.51245117 61.19995117 C-56.27451852 73.05990027 -85.79593653 73.15692708 -113.6171875 73.16796875 C-115.56845115 73.17119655 -117.51971459 73.17456164 -119.47097778 73.17805481 C-123.54022785 73.18399711 -127.60945685 73.18589994 -131.67871094 73.18530273 C-135.79171164 73.18522173 -139.90460037 73.19213147 -144.01757812 73.20581055 C-203.97095672 73.40218746 -203.97095672 73.40218746 -227 68 C-228.23234375 67.73574219 -229.4646875 67.47148437 -230.734375 67.19921875 C-247.31485522 63.29489405 -261.85112078 56.06280817 -271.46484375 41.609375 C-276.03990266 33.83293898 -279 25.05833781 -279 16 C-268.18511558 11.51382572 -258.92651424 12.42907935 -248 16 C-246.87343994 16.36254883 -246.87343994 16.36254883 -245.72412109 16.73242188 C-235.19163441 20.12986682 -224.76482379 23.7397445 -214.4453125 27.73828125 C-210.98565468 29.00525344 -207.55238926 30.03240548 -204 31 C-204.34224609 29.98679687 -204.34224609 29.98679687 -204.69140625 28.953125 C-204.97886719 28.06109375 -205.26632813 27.1690625 -205.5625 26.25 C-205.99755859 24.92742187 -205.99755859 24.92742187 -206.44140625 23.578125 C-207.01697435 20.92165684 -206.89248371 19.52968894 -206 17 C-205.41605469 17.74443359 -205.41605469 17.74443359 -204.8203125 18.50390625 C-193.18893288 32.62772436 -175.3390189 39.5498676 -157.42578125 41.55859375 C-127.86321223 44.2976529 -99.5055382 41.40753318 -76 22 C-74.31471312 20.35216394 -72.64302953 18.68997323 -71 17 C-71.47811177 18.77111844 -71.9575278 20.54188483 -72.4375 22.3125 C-72.70433594 23.29863281 -72.97117187 24.28476562 -73.24609375 25.30078125 C-73.78079425 27.21517526 -74.37144538 29.11433615 -75 31 C-71.97843604 30.0021667 -68.95762578 29.00217267 -65.9375 28 C-65.00172119 27.6896582 -64.06594238 27.37931641 -63.10180664 27.05957031 C-57.01395347 25.0311269 -50.95284832 22.93741353 -44.90356445 20.796875 C-14.68985375 10.13291982 -14.68985375 10.13291982 -1 16 C-0.67 10.72 -0.34 5.44 0 0 Z " fill="#DFDDCD" transform="translate(434,375)"/>
<path d="M0 0 C2.69737096 2.69737096 3.7042065 5.90319332 5.125 9.375 C8.30264132 16.86533444 12.14502641 23.44531612 17 30 C17.92232422 31.25683594 17.92232422 31.25683594 18.86328125 32.5390625 C27.75058946 44.13120365 37.81082884 53.05758794 50 61 C51.44393796 62.01170653 52.88289087 63.03064503 54.3125 64.0625 C55.199375 64.701875 56.08625 65.34125 57 66 C56.36008838 69.85353372 55.19288923 73.15197992 53.6875 76.75 C48.50671187 90.3345084 46.62008598 102.33808209 46.5625 116.8125 C46.5524292 118.12331543 46.5423584 119.43413086 46.53198242 120.78466797 C46.68965291 138.46389128 52.10964068 154.19086413 64.14453125 167.34375 C74.72692687 177.59270364 88.03165001 183.02427552 102 187 C103.47919922 187.42732422 103.47919922 187.42732422 104.98828125 187.86328125 C126.12324644 193.32198087 148.32086459 193.60664272 170 194.1875 C172.7331444 194.26786505 175.46618314 194.3515715 178.19921875 194.43554688 C184.79921409 194.63742438 191.39929692 194.81830966 198 195 C198 207.87 198 220.74 198 234 C148.16708298 235.29436148 99.67141256 215.80451598 63.18359375 181.97265625 C61.6427821 180.58068866 60.04755485 179.24784211 58.41796875 177.9609375 C56.31535164 176.2557456 54.62163889 174.61548654 52.875 172.5625 C51.98941406 171.52416016 51.98941406 171.52416016 51.0859375 170.46484375 C50.39757812 169.65144531 49.70921875 168.83804688 49 168 C48.11788524 166.97986499 47.23502469 165.96037457 46.3515625 164.94140625 C31.84796006 148.13759567 20.84730066 129.332742 12 109 C11.47921875 107.84757812 10.9584375 106.69515625 10.421875 105.5078125 C6.55495427 96.20685053 4.35310942 86.55785284 2.1875 76.75 C1.95762894 75.71901688 1.95762894 75.71901688 1.72311401 74.66720581 C-1.32600973 60.85893994 -2.20247328 47.43729878 -2.1875 33.3125 C-2.1882251 32.6122168 -2.1889502 31.91193359 -2.18969727 31.19042969 C-2.18849571 20.67917812 -1.75183984 10.38590765 0 0 Z " fill="#FDFDFD" transform="translate(97,266)"/>
<path d="M0 0 C4.37681187 2.24017468 6.63532832 5.06013722 8.94140625 9.3046875 C9.31998285 12.25311094 9.48318373 14.82077847 9.44934082 17.76170349 C9.45870076 19.01767722 9.45870076 19.01767722 9.4682498 20.29902416 C9.48417097 23.09734321 9.47157904 25.89479013 9.45898438 28.69311523 C9.46440592 30.70232653 9.47152876 32.71153385 9.48022461 34.72073364 C9.49845807 40.17325297 9.49138991 45.6254695 9.47870827 51.07799411 C9.4685794 56.78557064 9.47797377 62.4931213 9.48425293 68.20069885 C9.49153024 77.78659721 9.48194 87.37237231 9.46289062 96.95825195 C9.441128 108.03733659 9.4481686 119.11612671 9.47019625 130.1952042 C9.48835521 139.7096065 9.49090592 149.2239202 9.48044157 158.73833424 C9.47420861 164.41987342 9.47336556 170.10127423 9.48658752 175.78280449 C9.49815231 181.12547572 9.49010849 186.46776778 9.4670105 191.8103981 C9.46172654 193.76993874 9.4632318 195.72951136 9.47206116 197.68903923 C9.48301275 200.36668454 9.46925786 203.04311941 9.44934082 205.72068787 C9.46272515 206.88043055 9.46272515 206.88043055 9.47637987 208.06360239 C9.39727207 213.55688866 8.03919561 216.75409552 4.94140625 221.3046875 C0.52513904 225.31947588 -3.7920424 225.64860639 -9.55078125 225.58984375 C-14.15801277 225.06596851 -16.85602328 222.63166182 -19.87109375 219.3046875 C-22.5099513 214.86029584 -22.20696582 210.20273314 -22.20576477 205.16410828 C-22.20944146 204.33666841 -22.21311815 203.50922854 -22.21690625 202.65671474 C-22.22793203 199.88010498 -22.23178503 197.10353266 -22.2355957 194.3269043 C-22.24186109 192.33769614 -22.24850795 190.34848915 -22.25550842 188.35928345 C-22.27653864 181.82416599 -22.2869084 175.28904832 -22.296875 168.75390625 C-22.30092265 166.50420431 -22.30503957 164.25450249 -22.30922508 162.0048008 C-22.3282728 151.43767545 -22.34250591 140.87055708 -22.35083705 130.30341786 C-22.36061466 118.10304678 -22.3869497 105.90285687 -22.42733794 93.70254964 C-22.45748314 84.27313669 -22.47230434 74.84377573 -22.47561806 65.41431552 C-22.47796996 59.78189831 -22.48694902 54.14967475 -22.51207924 48.51730919 C-22.53533754 43.21903182 -22.53960212 37.92107594 -22.52931786 32.62276077 C-22.52882188 30.67933013 -22.53516058 28.73588377 -22.5488739 26.79250145 C-22.56656451 24.13668801 -22.55950086 21.48203195 -22.54634094 18.82621765 C-22.55731019 18.05947352 -22.56827943 17.29272938 -22.57958108 16.50275058 C-22.51409192 11.0184145 -21.16183274 7.84228707 -18.05859375 3.3046875 C-12.85785919 -1.52456602 -6.6538279 -2.24740297 0 0 Z " fill="#7DC1FE" transform="translate(47.05859375,265.6953125)"/>
<path d="M0 0 C-0.53109375 0.88300781 -1.0621875 1.76601562 -1.609375 2.67578125 C-17.82875959 30.03303949 -22.25181188 64.29242411 -29 95 C-31.40949639 91.38575541 -31.93463319 87.92978662 -32.75 83.75 C-39.04893634 53.91293311 -57.52443158 26.82121292 -82.84179688 9.82519531 C-99.33397141 -0.83092319 -116.6147089 -7.11332832 -136 -10 C-136.50690584 -12.06081361 -137.00524619 -14.12373526 -137.5 -16.1875 C-137.7784375 -17.33605469 -138.056875 -18.48460938 -138.34375 -19.66796875 C-138.91495385 -22.56818829 -139.13283779 -25.06096385 -139 -28 C-91.76078209 -39.80980448 -40.21409365 -25.287465 0 0 Z " fill="#F22535" transform="translate(363,115)"/>
<path d="M0 0 C1.39998402 1.006023 2.83452749 1.96357264 4.2734375 2.91308594 C7.7869798 5.28472699 9.84755197 6.87018485 11.0859375 11.01464844 C11.2509375 12.04589844 11.4159375 13.07714844 11.5859375 14.13964844 C10.71453125 14.16542969 9.843125 14.19121094 8.9453125 14.21777344 C-0.79501616 14.68159861 -9.18692475 16.38352126 -17.8515625 20.95214844 C-21.04137342 22.4303535 -22.0768857 22.12344044 -25.4140625 21.13964844 C-27.3920676 20.02091777 -29.32643455 18.82357383 -31.2265625 17.57714844 C-44.53117165 9.13508903 -58.53990744 3.23752892 -73.4140625 -1.86035156 C-74.08904785 -2.09882812 -74.7640332 -2.33730469 -75.45947266 -2.58300781 C-87.17391266 -6.7047007 -99.16320588 -8.93983966 -111.4140625 -10.86035156 C-112.52612061 -11.03832275 -113.63817871 -11.21629395 -114.78393555 -11.3996582 C-121.05356157 -12.19532599 -127.35392805 -12.05436684 -133.6640625 -12.04785156 C-134.37527252 -12.04857666 -135.08648254 -12.04930176 -135.81924438 -12.05004883 C-145.92410925 -12.04891004 -155.86929341 -11.63749246 -165.89453125 -10.29785156 C-168.80254263 -9.93636735 -171.4955151 -9.82535024 -174.4140625 -9.86035156 C-175.4192246 -14.29669866 -176.41730981 -18.73460815 -177.4140625 -23.17285156 C-177.70023438 -24.43548828 -177.98640625 -25.698125 -178.28125 -26.99902344 C-178.55195313 -28.20751953 -178.82265625 -29.41601562 -179.1015625 -30.66113281 C-179.35292969 -31.77657471 -179.60429687 -32.8920166 -179.86328125 -34.04125977 C-180.4140625 -36.86035156 -180.4140625 -36.86035156 -180.4140625 -39.86035156 C-177.10190857 -40.34192996 -173.78927944 -40.82016267 -170.4765625 -41.29785156 C-169.08727539 -41.49991211 -169.08727539 -41.49991211 -167.66992188 -41.70605469 C-164.91936899 -42.10174826 -162.16735451 -42.4842243 -159.4140625 -42.86035156 C-158.68340576 -42.96404053 -157.95274902 -43.06772949 -157.19995117 -43.17456055 C-102.67264534 -50.183325 -43.94978395 -32.04257438 0 0 Z " fill="#82EB87" transform="translate(394.4140625,84.8603515625)"/>
<path d="M0 0 C4.23832154 0.38530196 7.98950247 1.24936431 12.01953125 2.62109375 C13.611604 3.16080811 13.611604 3.16080811 15.23583984 3.71142578 C16.4780127 4.13665527 17.72018555 4.56188477 19 5 C20.49295457 5.50908889 21.98595881 6.01803213 23.47900391 6.52685547 C27.73071685 7.97712179 31.98105827 9.43137294 36.23117065 10.88632202 C54.31941013 17.08094613 54.31941013 17.08094613 72.4375 23.1875 C73.19603271 23.44184814 73.95456543 23.69619629 74.73608398 23.95825195 C80.12479836 25.74956044 85.55429108 27.39102453 91 29 C90.34 30.65 89.68 32.3 89 34 C82.24088795 33.59445328 76.5628541 31.50792447 70.26953125 29.05859375 C67.23126375 28.07487751 65.15150046 27.67979407 62 28 C60 29 60 29 59 31 C58.78834193 33.99711293 58.78834193 33.99711293 60 37 C62.64884879 38.44482661 64.79469808 39.36206214 67.625 40.25 C68.32496094 40.49234375 69.02492188 40.7346875 69.74609375 40.984375 C74.11991457 42.47747895 78.54834224 43.76148104 83 45 C81.55676531 49.73789165 79.62773267 53.98858151 77.375 58.375 C77.05015625 59.01566406 76.7253125 59.65632813 76.390625 60.31640625 C75.59742593 61.87947501 74.79922969 63.44000622 74 65 C68.17825534 64.34646221 62.99848303 62.7524917 57.51757812 60.72851562 C53.54103219 59.32382432 50.21578956 58.65132568 46 59 C44.58422523 60.18424326 44.58422523 60.18424326 44.9375 63.5625 C44.958125 64.696875 44.97875 65.83125 45 67 C52.50709584 70.49468255 60.18393833 73.28717063 68 76 C66.55676531 80.73789165 64.62773267 84.98858151 62.375 89.375 C62.05015625 90.01566406 61.7253125 90.65632813 61.390625 91.31640625 C60.59742593 92.87947501 59.79922969 94.44000622 59 96 C50.60442991 94.52300156 44.49054694 91.68534574 37.41674805 86.96069336 C21.74036902 76.55182557 5.00275829 70.23684045 -13 65 C-12.45359408 60.9782555 -11.85023373 57.01767948 -10.9375 53.0625 C-10.67259766 51.90427734 -10.67259766 51.90427734 -10.40234375 50.72265625 C-10.26957031 50.15417969 -10.13679688 49.58570313 -10 49 C-8.02 48.505 -8.02 48.505 -6 48 C-4.80011955 42.71800407 -4.80011955 42.71800407 -7 38 C-6.61561649 30.184202 -4.72209932 22.61406177 -3 15 C-2.12214844 15.73283203 -2.12214844 15.73283203 -1.2265625 16.48046875 C1.9204433 18.62816218 4.27818302 18.34461268 8 18 C10.31563087 16.11499729 10.31563087 16.11499729 10.25 13 C10.31563087 9.88500271 10.31563087 9.88500271 8 8 C5.78927023 7.75746187 5.78927023 7.75746187 3.375 7.875 C2.14910156 7.90207031 2.14910156 7.90207031 0.8984375 7.9296875 C-0.04128906 7.96449219 -0.04128906 7.96449219 -1 8 C-0.67 5.36 -0.34 2.72 0 0 Z " fill="#FB6A06" transform="translate(349,193)"/>
<path d="M0 0 C0.495 0.495 0.495 0.495 1 1 C3.1280157 1.17644885 5.25658043 1.34781452 7.38696289 1.49291992 C27.76561671 2.97497003 44.33551208 10.40050593 58 26 C62.28703884 31.34137156 64.25616049 35.08814294 65 42 C64.18402344 42.1959375 63.36804688 42.391875 62.52734375 42.59375 C54.30583086 44.66925706 46.36308754 47.21605801 38.375 50.0625 C11.64275268 59.44962568 -9.89497899 58.67635105 -36.4375 48.29296875 C-39.45667463 47.19719375 -41.5362485 46.68324864 -44.6875 46.625 C-47.97776953 46.30566708 -49.15668107 45.90599136 -52.125 44.125 C-54.55796269 40.07006219 -54.49816868 37.52210649 -53.828125 32.90625 C-50.37004858 20.77035917 -38.86433793 12.5958705 -28.37158203 6.73583984 C-19.22789712 1.8531465 -10.46520397 -1.19770627 0 0 Z " fill="#FEBB00" transform="translate(291,306)"/>
<path d="M0 0 C0.63808594 0.47824219 1.27617187 0.95648438 1.93359375 1.44921875 C13.76620151 10.64650184 21.83202291 26.34375816 24 41 C25.37742521 56.81488203 21.30718622 69.52040706 11.6875 82 C-0.81206751 96.72337395 -21.71355318 101.66878531 -40 104 C-44.31739752 104.25965091 -48.61333749 104.28650704 -52.9375 104.25 C-54.07759521 104.24468262 -55.21769043 104.23936523 -56.39233398 104.23388672 C-64.12506354 104.14647374 -71.43258955 103.66600354 -79 102 C-80.10794922 101.81824219 -80.10794922 101.81824219 -81.23828125 101.6328125 C-98.1770789 98.59807362 -112.55235797 89.61028941 -123 76 C-124.67666567 73.41901027 -125.90264549 70.87085674 -127 68 C-127.29648438 67.31164062 -127.59296875 66.62328125 -127.8984375 65.9140625 C-133.03324148 52.11133254 -130.48159998 36.18916956 -124.71484375 23.078125 C-115.60538555 5.11295395 -100.03558953 -7.30195621 -81.43359375 -14.3515625 C-53.9459487 -23.20621525 -22.30427123 -18.68523604 0 0 Z M-104 13 C-114.18735057 26.21667301 -119.18887133 39.28882272 -118 56 C-115.46510558 67.67499944 -108.72176522 75.45746953 -99 82 C-79.60887605 94.31763219 -49.86777601 94.80854698 -27.96875 90.0390625 C-13.60463902 86.49036514 0.10123947 80.05285891 8 67 C13.10834428 57.19258531 13.59144206 46.83092022 10.60986328 36.23168945 C8.14071015 28.46146816 4.31664129 22.1728794 -1 16 C-1.60585938 15.28328125 -2.21171875 14.5665625 -2.8359375 13.828125 C-16.02488354 -0.52946183 -33.34954659 -5.27005072 -52.01953125 -6.640625 C-56 -7 -56 -7 -57 -8 C-74.22933383 -10.3418512 -92.79368014 0.56483656 -104 13 Z " fill="#37393B" transform="translate(348,314)"/>
<path d="M0 0 C31.77826684 0 57.88441728 12.45732945 80.46875 34.3984375 C99.9959631 55.09453308 109.17374229 80.5529897 109.1875 108.6875 C109.19974609 109.98623047 109.21199219 111.28496094 109.22460938 112.62304688 C109.23812398 121.59224214 108.85727202 130.42818393 106 139 C97.09 138.67 88.18 138.34 79 138 C79.99 134.04 80.98 130.08 82 126 C86.09111844 103.58258494 81.35506196 81.54554464 68.84765625 62.55078125 C66.52937052 59.35027262 63.99933855 56.42787218 61.28515625 53.55859375 C60 52 60 52 60 50 C59.40832031 49.73445313 58.81664062 49.46890625 58.20703125 49.1953125 C55.9431458 47.96920817 54.5110593 46.67759885 52.6875 44.875 C36.46531157 30.45527695 15.8662484 27.16120006 -5 26 C-5 25.67 -5 25.34 -5 25 C-3.35 25 -1.7 25 0 25 C0 16.75 0 8.5 0 0 Z " fill="#83682C" transform="translate(212,115)"/>
<path d="M0 0 C0 14.85 0 29.7 0 45 C-3.63 45.66 -7.26 46.32 -11 47 C-17.52620656 50.51411123 -22.17730096 54.01441288 -25 61 C-25.92272907 64.67634689 -26.48207248 68.23325442 -27 72 C-23.37 72 -19.74 72 -16 72 C-15.5875 73.4025 -15.175 74.805 -14.75 76.25 C-13.42849473 80.11752459 -12.46978663 82.62593547 -9 85 C-6.02662352 86.18317749 -3.07816351 87.09465779 0 88 C0 91.63 0 95.26 0 99 C-7.79400941 99.55671496 -12.75028884 97.79626309 -18.6875 92.6875 C-24.33512019 86.12404951 -28 81.00519974 -28 72 C-42.19 72 -56.38 72 -71 72 C-71 51.03383542 -65.71078384 35.91639584 -50.95703125 20.828125 C-36.7153916 6.88446718 -19.83041945 0 0 0 Z " fill="#BDDC05" transform="translate(212,153)"/>
<path d="M0 0 C7.08292473 1.01184639 9.44531236 1.65004023 13.616395 7.11957741 C15.42186532 10.87824949 15.41919742 14.25523958 15.38768005 18.33676147 C15.39306559 19.17322287 15.39845113 20.00968427 15.40399987 20.87149298 C15.41830095 23.67277933 15.41117041 26.47359458 15.40405273 29.27490234 C15.40975522 31.28396485 15.416719 33.29302411 15.42485046 35.30207825 C15.4428115 40.75873634 15.4416078 46.21523388 15.43590808 51.67191267 C15.43282015 56.22712223 15.43890435 60.78230078 15.44494683 65.33750594 C15.45900044 76.08440514 15.4574241 86.83122486 15.44604492 97.578125 C15.43456561 108.66456398 15.44863444 119.75076101 15.4754414 130.8371681 C15.49759559 140.3557882 15.50423631 149.87433234 15.49836498 159.3929764 C15.49499322 165.07789376 15.49742505 170.76265605 15.51461601 176.44755173 C15.53007823 181.79429777 15.5261374 187.14068538 15.50731087 192.48741722 C15.50362286 194.44857527 15.5067396 196.40975984 15.51719666 198.37089348 C15.53039389 201.05076595 15.51887043 203.72944968 15.50120544 206.40927124 C15.51081045 207.18311515 15.52041546 207.95695906 15.53031152 208.75425279 C15.4459019 214.98931911 13.60547214 219.304684 9.1875 223.875 C7 225 7 225 0 226 C0 219.4 0 212.8 0 206 C-1.65 205.34 -3.3 204.68 -5 204 C-6.80649901 202.19350099 -6.25696966 199.56248958 -6.3125 197.125 C-6.34988281 196.05507813 -6.38726562 194.98515625 -6.42578125 193.8828125 C-6 191 -6 191 -4.10546875 189.1171875 C-2 188 -2 188 0 188 C0 125.96 0 63.92 0 0 Z " fill="#2A8AF3" transform="translate(41,265)"/>
<path d="M0 0 C0.33 0 0.66 0 1 0 C1 3.3 1 6.6 1 10 C15.19 10 29.38 10 44 10 C45.32 14.29 46.64 18.58 48 23 C49.32 24.65 50.64 26.3 52 28 C52 28.66 52 29.32 52 30 C52.87398437 30.433125 52.87398437 30.433125 53.765625 30.875 C55.13885685 31.56641744 56.5053091 32.27176287 57.859375 33 C58.79523438 33.495 58.79523438 33.495 59.75 34 C60.36359375 34.33 60.9771875 34.66 61.609375 35 C64.99256812 36.41519189 68.42996506 37.16350646 72 38 C74.21471181 55.79314068 74.21471181 55.79314068 70.80322266 60.73291016 C67.56847953 63.57837188 63.74671973 65.24475629 59.85546875 67.015625 C56.826109 68.62278007 54.66442221 70.88566516 52.1875 73.25 C47.75400939 76.92844199 47.75400939 76.92844199 44.77734375 77.2109375 C42.16830289 76.50067229 40.28990193 75.44856416 38 74 C36.44925781 73.04867187 36.44925781 73.04867187 34.8671875 72.078125 C17.67785213 61.06086678 6.0699334 44.86865793 1 25 C0.00113401 19.47565955 -0.12104174 14.150985 -0.0625 8.5625 C-0.05798828 7.73556641 -0.05347656 6.90863281 -0.04882812 6.05664062 C-0.03715811 4.03772854 -0.01922718 2.01885426 0 0 Z " fill="#84C506" transform="translate(140,215)"/>
<path d="M0 0 C13.02522646 -1.21164897 27.11287538 6.03855893 37.1875 13.75 C51.57076781 25.94701111 62.59840292 42.95876604 65 62 C65.46867347 71.5151614 64.95347779 80.67877574 63 90 C62.89429688 90.96550781 62.78859375 91.93101562 62.6796875 92.92578125 C62.00165226 96.2252344 61.47323997 97.67580651 59 100 C53.48691204 101.89141551 47.46731405 102.08482631 41.70605469 102.66943359 C27.43686915 104.4125297 14.25288539 110.06880731 1.30737305 116.02612305 C-1.40236051 117.169825 -4.20972419 118.06990806 -7 119 C-7 112.4 -7 105.8 -7 99 C-5.02 98.46375 -3.04 97.9275 -1 97.375 C8.09049483 94.51262921 12.95310242 91.54573879 17.4375 83 C19.47258636 78.74129067 20.19720333 75.81678002 21 71 C35.19 71 49.38 71 64 71 C63.52956534 64.78603678 63.52956534 64.78603678 60.48802185 60.77322388 C59.95655548 60.23495468 59.42508911 59.69668549 58.8775177 59.1421051 C58.29201645 58.57974655 57.7065152 58.017388 57.10327148 57.43798828 C56.48865051 56.82409744 55.87402954 56.2102066 55.24078369 55.57771301 C53.21464032 53.56081575 51.16822316 51.56588649 49.12109375 49.5703125 C47.70867098 48.1716258 46.2976429 46.77152942 44.88795471 45.37008667 C41.18053678 41.69119821 37.45589498 38.03025895 33.72692871 34.37322998 C29.18672541 29.91472855 24.66553188 25.43696846 20.14316654 20.96038628 C16.62770742 17.4807658 13.10892971 14.00474769 9.57969666 10.53909302 C8.93448563 9.90383194 8.2892746 9.26857086 7.62451172 8.61405945 C6.41397144 7.42226727 5.2015408 6.23239123 3.98695374 5.04472351 C2.63903668 3.7154102 1.31642076 2.36051117 0 1 C0 0.67 0 0.34 0 0 Z " fill="#51C208" transform="translate(219,154)"/>
<path d="M0 0 C0.73605469 0.00451172 1.47210938 0.00902344 2.23046875 0.01367188 C4.02868158 0.02534858 5.82685197 0.04327989 7.625 0.0625 C7.78355469 0.65417969 7.94210937 1.24585937 8.10546875 1.85546875 C9.67106947 7.15775186 11.22520722 10.45241362 15.625 14.0625 C19.79935367 16.14967683 25.07962166 15.51347749 29.625 15.0625 C32.14333503 14.00920398 33.53190698 12.88018605 35.625 11.0625 C36.285 10.7325 36.945 10.4025 37.625 10.0625 C48.14064183 17.90750263 58.27843429 26.27642642 60.625 40.0625 C60.71699024 42.1025188 60.75501741 44.14541437 60.75 46.1875 C60.75386719 47.76917969 60.75386719 47.76917969 60.7578125 49.3828125 C60.625 52.0625 60.625 52.0625 59.625 54.0625 C53.2286849 53.39586558 47.74584328 51.43088594 41.765625 49.14648438 C36.35539295 47.119415 36.35539295 47.119415 30.625 47.0625 C30.191875 47.59875 29.75875 48.135 29.3125 48.6875 C28.755625 49.14125 28.19875 49.595 27.625 50.0625 C24.81158585 49.70942213 22.35063157 48.91146721 19.625 48.0625 C19.41875 46.969375 19.2125 45.87625 19 44.75 C17.96628196 40.9012665 17.96628196 40.9012665 14.8125 39.125 C11.74938453 38.10396151 9.80004941 37.54762712 6.625 38.0625 C6.13 38.5575 5.635 39.0525 5.125 39.5625 C3.625 41.0625 3.625 41.0625 0.9375 41.25 C-0.2071875 41.1571875 -0.2071875 41.1571875 -1.375 41.0625 C-1.64054687 40.49660156 -1.90609375 39.93070313 -2.1796875 39.34765625 C-2.53289062 38.61417969 -2.88609375 37.88070312 -3.25 37.125 C-3.77207031 36.02865234 -3.77207031 36.02865234 -4.3046875 34.91015625 C-5.2434977 32.89917541 -5.2434977 32.89917541 -7.375 32.0625 C-10.33304573 31.72909529 -10.33304573 31.72909529 -13.375 32.0625 C-14.3944119 33.04270375 -15.39746356 34.04053008 -16.375 35.0625 C-18.5625 34.75 -18.5625 34.75 -20.375 34.0625 C-20.66375 32.928125 -20.9525 31.79375 -21.25 30.625 C-21.62125 29.449375 -21.9925 28.27375 -22.375 27.0625 C-25.17370027 25.66314987 -27.27998792 25.80984595 -30.375 26.0625 C-30.87 26.578125 -31.365 27.09375 -31.875 27.625 C-32.37 28.099375 -32.865 28.57375 -33.375 29.0625 C-36.5625 28.75 -36.5625 28.75 -39.375 28.0625 C-38.07836129 19.68651199 -33.08094855 12.86085486 -26.5859375 7.59765625 C-17.98595924 1.62629325 -10.29957865 -0.12106196 0 0 Z " fill="#FCB006" transform="translate(403.375,110.9375)"/>
<path d="M0 0 C8.25 0 16.5 0 25 0 C25.37125 2.97 25.7425 5.94 26.125 9 C28.63876944 26.65407441 35.24640761 42.47784008 47.75 55.51171875 C49 57 49 57 49 59 C49.5878125 59.26425781 50.175625 59.52851563 50.78125 59.80078125 C53.07774212 61.04201907 54.62068353 62.38648838 56.5 64.1875 C61.47519652 68.67271505 67.15057495 71.79256526 73 75 C71.73523536 78.58969964 70.34385046 81.03754737 67.75 83.8125 C64.22548131 87.69168723 61.07763359 91.76120795 58 96 C35.75251459 88.0661541 18.69776912 65.63666139 8.94580078 45.10791016 C2.44365631 30.61655358 -0.48418703 15.8167763 0 0 Z " fill="#83682C" transform="translate(103,225)"/>
<path d="M0 0 C0.33 0.66 0.66 1.32 1 2 C1.66 1.67 2.32 1.34 3 1 C13.26534966 -0.18381298 22.50380795 2.12629644 32.22558594 5.14892578 C34.1874021 5.75072894 36.15790007 6.32456563 38.13378906 6.87841797 C56.76106277 12.16048948 56.76106277 12.16048948 60.36523438 16.73144531 C62.33588764 20.97167115 62.53028902 25.38370073 63 30 C64.07076649 32.50204413 64.07076649 32.50204413 65.5 34.625 C68.77879543 39.96067952 70.69663002 45.88939529 72 52 C71.67 52.99 71.34 53.98 71 55 C62.5556176 52.22358942 54.14013842 49.37377248 45.75 46.4375 C44.89204834 46.1374707 44.03409668 45.83744141 43.15014648 45.52832031 C38.68562135 43.96127587 34.24170145 42.35233308 29.8125 40.6875 C18.16931436 36.46842962 8.02279148 36.09680668 -4 39 C-4.3791437 25.54331526 -4.30054089 12.90162266 0 0 Z " fill="#F3F2E8" transform="translate(159,352)"/>
<path d="M0 0 C2.64804038 8.72927855 3.38806686 16.65763567 3.1875 25.75 C3.16719727 27.52890625 3.16719727 27.52890625 3.14648438 29.34375 C3.11157409 32.22966693 3.06254539 35.11457264 3 38 C1.78441406 37.51402344 0.56882812 37.02804687 -0.68359375 36.52734375 C-16.67320342 30.56505686 -35.61167689 40.4705686 -50.66796875 45.78125 C-54.97822822 47.29553939 -59.29002847 48.80441489 -63.61328125 50.28125 C-64.57661377 50.61189453 -65.53994629 50.94253906 -66.5324707 51.28320312 C-69 52 -69 52 -72 52 C-71.05924007 46.07073675 -69.71085629 40.84223753 -67.140625 35.4140625 C-65.82933875 32.63880599 -64.62668948 29.82969787 -63.4375 27 C-63.04433594 26.071875 -62.65117187 25.14375 -62.24609375 24.1875 C-60.95109417 21.22013438 -60.95109417 21.22013438 -60.66796875 18.81005859 C-60.14080052 16.0770776 -59.56907203 14.31555467 -58 12 C-53.63618813 9.44523304 -48.94442559 8.06247719 -44.125 6.625 C-42.85052715 6.21282316 -41.57707372 5.79748015 -40.3046875 5.37890625 C-12.8541705 -3.40412954 -12.8541705 -3.40412954 0 0 Z " fill="#F3F2E8" transform="translate(431,354)"/>
<path d="M0 0 C0.99 1.0209375 0.99 1.0209375 2 2.0625 C2.99789618 3.04381064 3.9981304 4.02274636 5 5 C5.53496094 5.54269531 6.06992188 6.08539063 6.62109375 6.64453125 C25.59327351 24.7191025 53.22185285 25.70471002 77.82714844 25.13183594 C100.10387817 24.20621005 120.33466024 16.11292089 136 0 C132.79721975 14.27203833 126.59651968 27.38733373 114.1875 35.875 C100.64290092 43.45033901 85.15933085 44.36015493 69.99951172 44.31567383 C67.76609974 44.31252272 65.53403009 44.33604514 63.30078125 44.36132812 C55.71034545 44.39571713 48.36102438 43.96937786 40.87109375 42.69140625 C40.19330872 42.57807449 39.51552368 42.46474274 38.81719971 42.34797668 C27.48467067 40.20346088 16.28203823 34.09990635 9.5 24.625 C4.80289833 17.67872937 0 8.48884508 0 0 Z " fill="#D1CFC0" transform="translate(227,392)"/>
<path d="M0 0 C0.8451416 0.15484863 1.6902832 0.30969727 2.56103516 0.46923828 C29.1139682 5.55456141 60.74219166 17.75612583 81 36 C81 36.66 81 37.32 81 38 C79.78074525 38.70492893 78.5489894 39.38825901 77.3125 40.0625 C76.62800781 40.44535156 75.94351563 40.82820313 75.23828125 41.22265625 C72.32652381 42.23389487 70.9252434 41.9515852 68 41 C66.0219949 39.88126933 64.08762795 38.6839254 62.1875 37.4375 C48.88289085 28.99544059 34.87415506 23.09788049 20 18 C18.98752197 17.64228516 18.98752197 17.64228516 17.95458984 17.27734375 C6.24014984 13.15565086 -5.74914338 10.9205119 -18 9 C-19.11205811 8.82202881 -20.22411621 8.64405762 -21.36987305 8.46069336 C-27.63949907 7.66502557 -33.93986555 7.80598472 -40.25 7.8125 C-40.96121002 7.8117749 -41.67242004 7.8110498 -42.40518188 7.81030273 C-52.51004675 7.81144152 -62.45523091 8.2228591 -72.48046875 9.5625 C-76 10 -76 10 -81 10 C-81.33 6.7 -81.66 3.4 -82 0 C-55.03144302 -6.74213924 -27.10747957 -4.97712546 0 0 Z " fill="#5FCC94" transform="translate(301,65)"/>
<path d="M0 0 C-0.59638333 1.27450447 -1.20247416 2.54446877 -1.8125 3.8125 C-2.14894531 4.52019531 -2.48539063 5.22789063 -2.83203125 5.95703125 C-4.01144369 8.02001688 -5.2982007 9.36341935 -7 11 C-7.47719482 10.72849121 -7.95438965 10.45698242 -8.44604492 10.17724609 C-26.80799669 -0.23660055 -45.00265814 -8.73241955 -65.5625 -13.75 C-66.36365234 -13.94859619 -67.16480469 -14.14719238 -67.99023438 -14.35180664 C-83.48431565 -17.9552608 -98.68091452 -18.2651323 -114.5 -18.125 C-116.49869338 -18.11494001 -118.49739172 -18.10581955 -120.49609375 -18.09765625 C-125.33085455 -18.07590525 -130.16537045 -18.0415456 -135 -18 C-135.33 -20.64 -135.66 -23.28 -136 -26 C-90.39728795 -37.40067801 -39.25317294 -24.2023417 0 0 Z " fill="#D30124" transform="translate(360,113)"/>
<path d="M0 0 C4.06429192 3.95444619 8.13060303 9.44471544 8.41015625 15.29296875 C8.37760417 17.27864583 8.34505208 19.26432292 8.3125 21.25 C5.0125 21.25 1.7125 21.25 -1.6875 21.25 C-2.22375 19.703125 -2.76 18.15625 -3.3125 16.5625 C-5.35216343 11.50270336 -7.06834104 9.14829582 -11.6875 6.25 C-13.9975 5.59 -16.3075 4.93 -18.6875 4.25 C-18.6875 15.14 -18.6875 26.03 -18.6875 37.25 C-27.18517442 36.03604651 -27.18517442 36.03604651 -31.6875 32.25 C-34.35110377 28.07702076 -34.6875 26.34382475 -34.6875 21.25 C-38.3175 21.25 -41.9475 21.25 -45.6875 21.25 C-46.2441994 13.45620839 -44.12929301 8.99989642 -39.9375 2.5625 C-28.3358459 -9.36142227 -13.18647389 -8.58654114 0 0 Z " fill="#54C407" transform="translate(230.6875,203.75)"/>
<path d="M0 0 C-3.79502599 4.53057482 -7.71102607 8.85704277 -11.89770508 13.02709961 C-12.45292847 13.58407532 -13.00815186 14.14105103 -13.5802002 14.71490479 C-15.39082701 16.52988448 -17.20502858 18.34123953 -19.01953125 20.15234375 C-20.28666035 21.4201472 -21.55364103 22.688099 -22.82048035 23.95619202 C-25.46227699 26.59945622 -28.10585737 29.2409197 -30.75073242 31.88110352 C-34.1483265 35.27296568 -37.54136435 38.66934484 -40.93311024 42.06705379 C-43.54171294 44.67925773 -46.15267732 47.28909054 -48.7643795 49.89819527 C-50.01749859 51.15064568 -51.26987088 52.40384374 -52.52149391 53.65778923 C-54.26168515 55.40050356 -56.00502063 57.14000838 -57.74926758 58.87866211 C-58.26923813 59.40065689 -58.78920868 59.92265167 -59.32493591 60.46046448 C-62.88573036 64 -62.88573036 64 -64 64 C-65.38536873 50.42338641 -57.74563543 36.18885191 -49.52734375 25.90625 C-37.25888814 11.61176968 -19.63089132 -1.09060507 0 0 Z " fill="#DAEE1C" transform="translate(205,154)"/>
<path d="M0 0 C1.80666915 3.44127457 2.32031873 6.70585891 1.3125 10.5 C-0.76483143 13.21166806 -2.05491768 14.33887918 -5.38671875 15.1875 C-6.37285156 15.290625 -7.35898437 15.39375 -8.375 15.5 C-14.11102441 16.3065198 -18.59778468 17.78071449 -23.6875 20.5 C-24.53441406 20.933125 -25.38132812 21.36625 -26.25390625 21.8125 C-34.98020932 26.59831152 -39.24342991 32.54871551 -42.828125 41.71484375 C-43.6875 43.5 -43.6875 43.5 -45.6875 44.5 C-49.56317003 45.016756 -51.26512527 44.76061419 -54.625 42.6875 C-57.27961951 38.58490622 -57.205795 36.16075447 -56.515625 31.40625 C-53.05754858 19.27035917 -41.55183793 11.0958705 -31.05908203 5.23583984 C-22.2486399 0.53109689 -9.67746081 -5.40137347 0 0 Z " fill="#FCEC58" transform="translate(293.6875,307.5)"/>
<path d="M0 0 C6.28513004 5.18760582 12.00311158 10.87427266 17.74609375 16.6484375 C18.76720048 17.67141306 19.788531 18.69416528 20.81007385 19.71670532 C23.47711353 22.38753361 26.14113436 25.06135282 28.80450439 27.73583984 C31.5312385 30.47286736 34.26086305 33.20700901 36.99023438 35.94140625 C42.32963089 41.29147548 47.66583652 46.64471273 53 52 C51.21404673 55.78814304 49.80139606 57.97798082 46 60 C35.46172394 59.42798502 23.82286633 48.58099085 16.9921875 41.375 C7.67305318 30.26513006 -0.80890515 14.8299277 0 0 Z " fill="#BBDA05" transform="translate(141,232)"/>
<path d="M0 0 C1.485 0.495 1.485 0.495 3 1 C2.70867187 1.75539063 2.41734375 2.51078125 2.1171875 3.2890625 C-7.68802195 29.62129164 -12.98433902 57.62578298 -19 85 C-21.7973577 80.80396345 -22.29352173 76.24487013 -23.20996094 71.36157227 C-24.05361509 67.22548087 -24.95541237 63.75962537 -27.15625 60.1328125 C-29.4926665 56.16074661 -31.3342794 52.71694544 -31 48 C-27.92261568 39.99738587 -22.42824002 33.13569129 -17.37744141 26.28515625 C-13.50646023 20.9993872 -10.03576866 15.45060157 -6.5 9.9375 C-5.24172816 8.0077144 -3.98151931 6.0791894 -2.71875 4.15234375 C-2.19216797 3.34788818 -1.66558594 2.54343262 -1.12304688 1.71459961 C-0.75244141 1.14878174 -0.38183594 0.58296387 0 0 Z " fill="#F94158" transform="translate(353,125)"/>
<path d="M0 0 C8.25 0 16.5 0 25 0 C25.19792 9.89600009 25.15998574 19.52004279 22 29 C13.09 28.67 4.18 28.34 -5 28 C-4.01 24.04 -3.02 20.08 -2 16 C-1.54050023 13.06116725 -1.12548543 10.19736126 -0.8125 7.25 C-0.544375 4.8575 -0.27625 2.465 0 0 Z " fill="#6F5522" transform="translate(296,225)"/>
<path d="M0 0 C0.8559375 -0.020625 1.711875 -0.04125 2.59375 -0.0625 C8.66835666 -0.0993158 13.61963938 0.98349782 19.25 3.25 C19.875 5.625 19.875 5.625 20.25 8.25 C19.59 8.91 18.93 9.57 18.25 10.25 C16.25168585 10.03965114 14.25419565 9.81848204 12.26171875 9.55859375 C-2.59767249 8.03603615 -16.25997053 8.94584173 -28.54296875 18.3515625 C-36.06374711 24.820763 -40.3490659 32.4748852 -44.75 41.25 C-47.125 41.375 -47.125 41.375 -49.75 41.25 C-50.41 40.59 -51.07 39.93 -51.75 39.25 C-50.96374931 29.02874097 -43.98258005 20.06928976 -36.75 13.25 C-25.80904508 4.08325398 -14.06560886 0.08322845 0 0 Z " fill="#6FD23B" transform="translate(474.75,73.75)"/>
<path d="M0 0 C0.66 0 1.32 0 2 0 C14 30.79039301 14 30.79039301 14 38 C9.9397655 39.00935416 5.87647836 40.0058367 1.8125 41 C0.66201172 41.28617188 -0.48847656 41.57234375 -1.67382812 41.8671875 C-2.78564453 42.13789063 -3.89746094 42.40859375 -5.04296875 42.6875 C-6.06414795 42.93886719 -7.08532715 43.19023437 -8.13745117 43.44921875 C-10.84306968 43.96980513 -13.25415588 44.10586387 -16 44 C-17.0801034 41.27039528 -17.034951 40.10486238 -16.09130859 37.27368164 C-15.61516113 36.24621826 -15.13901367 35.21875488 -14.6484375 34.16015625 C-14.12636719 33.01353516 -13.60429687 31.86691406 -13.06640625 30.68554688 C-12.50824219 29.48994141 -11.95007813 28.29433594 -11.375 27.0625 C-7.26042082 18.13435891 -3.41259858 9.21938129 0 0 Z " fill="#80E785" transform="translate(470,180)"/>
<path d="M0 0 C7.25284898 1.03612128 9.43317109 1.82269524 14 7 C16.88037975 11.45149598 17.19209957 14.51430294 16.4375 19.625 C15.45196504 23.98524558 14.42373367 26.95668118 11 30 C6.80169371 32.59044431 5.08657099 33 0 33 C0 22.11 0 11.22 0 0 Z " fill="#85C605" transform="translate(212,208)"/>
<path d="M0 0 C11.55140299 0.49154906 20.43598794 7.81143648 28 16 C37.06954436 28.28776978 37.06954436 28.28776978 36.9375 33.4375 C35.69676246 36.82884927 33.65760825 38.61496696 31 41 C30.56300781 39.83984375 30.56300781 39.83984375 30.1171875 38.65625 C24.63150502 24.71778633 16.01364793 14.14526546 2.03125 7.97265625 C0 7 0 7 -2 5 C-1.46428571 1.46428571 -1.46428571 1.46428571 0 0 Z " fill="#8DF467" transform="translate(393,44)"/>
<path d="M0 0 C2.65625 0.3046875 2.65625 0.3046875 4.5 1.921875 C13.09850192 13.64341772 18.74622315 25.43861761 16.65625 40.3046875 C14.27085453 45.80944627 10.62896433 49.94079251 5.65625 53.3046875 C5.800625 52.74523437 5.945 52.18578125 6.09375 51.609375 C9.27823656 37.85416222 8.55016532 24.85641912 0.98828125 12.6015625 C-0.03775204 11.12953374 -1.09808669 9.68015343 -2.20703125 8.26953125 C-3.63967907 5.79316749 -3.62392709 4.12070467 -3.34375 1.3046875 C-2.34375 0.3046875 -2.34375 0.3046875 0 0 Z " fill="#8DF467" transform="translate(442.34375,12.6953125)"/>
<path d="M0 0 C8.21508945 0.5867921 15.00286927 3.16495389 21 9 C25.64464886 15.48671923 27.13008035 20.06509882 27 28 C23.7 28 20.4 28 17 28 C16.46375 26.453125 15.9275 24.90625 15.375 23.3125 C13.33533657 18.25270336 11.61915896 15.89829582 7 13 C4.65917262 12.10982621 2.45817903 11.54079939 0 11 C0 7.37 0 3.74 0 0 Z " fill="#53C407" transform="translate(212,197)"/>
<path d="M0 0 C1.8871875 0.0309375 1.8871875 0.0309375 3.8125 0.0625 C3.8125 3.3625 3.8125 6.6625 3.8125 10.0625 C1.7396875 10.619375 1.7396875 10.619375 -0.375 11.1875 C-5.14691268 12.80064658 -7.4721783 14.70152878 -10.1875 19.0625 C-11.10376179 21.73894892 -11.65772968 24.2691656 -12.1875 27.0625 C-15.8175 27.0625 -19.4475 27.0625 -23.1875 27.0625 C-23.7441994 19.26870839 -21.62929301 14.81239642 -17.4375 8.375 C-12.68371408 3.48916447 -6.94165486 -0.11379762 0 0 Z " fill="#85C605" transform="translate(208.1875,197.9375)"/>
<path d="M0 0 C0.84240234 -0.01611328 1.68480469 -0.03222656 2.55273438 -0.04882812 C8.55721678 -0.05345051 13.49441647 1.0877918 19.0625 3.3125 C19.6875 5.6875 19.6875 5.6875 20.0625 8.3125 C18.0625 10.3125 18.0625 10.3125 16.0390625 10.359375 C14.87503906 10.21242188 14.87503906 10.21242188 13.6875 10.0625 C12.91664063 9.97484375 12.14578125 9.8871875 11.3515625 9.796875 C9.0625 9.3125 9.0625 9.3125 7.25 8.28125 C4.04198373 6.86055708 0.88189458 7.01548715 -2.5625 7.0625 C-3.27889648 7.06999268 -3.99529297 7.07748535 -4.73339844 7.08520508 C-17.12691604 7.33536742 -28.91396252 10.79484689 -38.9375 18.3125 C-39.5975 17.9825 -40.2575 17.6525 -40.9375 17.3125 C-29.63767958 5.80342365 -16.05971661 -0.06115658 0 0 Z " fill="#8EF668" transform="translate(474.9375,73.6875)"/>
<path d="M0 0 C2.5 0.125 2.5 0.125 5 1 C7.55960793 4.54137535 7.30629361 8.43137045 7.25 12.625 C7.24395752 13.337771 7.23791504 14.05054199 7.23168945 14.78491211 C7.0751866 23.16303154 5.62235636 30.42598216 2 38 C-1.3 38 -4.6 38 -8 38 C-7.47599609 36.58847656 -7.47599609 36.58847656 -6.94140625 35.1484375 C-6.48149655 33.89072526 -6.02187653 32.63290707 -5.5625 31.375 C-5.11003906 30.14523438 -4.65757812 28.91546875 -4.19140625 27.6484375 C-1.96317369 20.82493188 -1.91778937 14.64385046 -2.12695312 7.5703125 C-2.1565124 5.71329474 -2.08527698 3.8552942 -2 2 C-1.34 1.34 -0.68 0.68 0 0 Z " fill="#8FF669" transform="translate(475,24)"/>
<path d="M0 0 C19.40058196 -0.600018 35.93001187 4.95425379 50.34765625 18.1484375 C53.53188232 21.25753664 56.38418783 24.39528322 59 28 C58.67 28.66 58.34 29.32 58 30 C57.35998047 29.27296875 57.35998047 29.27296875 56.70703125 28.53125 C42.3169565 13.10271625 23.13538682 7.8852536 3 5 C2.67 5.99 2.34 6.98 2 8 C1.34 5.36 0.68 2.72 0 0 Z " fill="#FACA01" transform="translate(293,308)"/>
<path d="M0 0 C3 2.0625 3 2.0625 5 5 C5.25157606 9.69608649 4.51302203 11.42590392 1.375 14.9375 C-2.55438706 17.33879209 -4.47808344 17.75365276 -9 17 C-11.4375 15.5 -11.4375 15.5 -13 13 C-13.78779223 8.03690897 -13.78779223 8.03690897 -13 5 C-9.09519458 0.42852049 -5.96604812 -1.08473602 0 0 Z " fill="#FFEC57" transform="translate(249,353)"/>
<path d="M0 0 C0.81185261 8.11852615 -2.12204395 14.51731428 -5 22 C-14.405 22.99 -14.405 22.99 -24 24 C-17.23832509 16.11137927 -17.23832509 16.11137927 -13.73046875 12.59765625 C-12.61575195 11.48100586 -12.61575195 11.48100586 -11.47851562 10.34179688 C-10.72248047 9.58962891 -9.96644531 8.83746094 -9.1875 8.0625 C-8.41212891 7.28326172 -7.63675781 6.50402344 -6.83789062 5.70117188 C-5.7328418 4.59805664 -5.7328418 4.59805664 -4.60546875 3.47265625 C-3.93668701 2.80500244 -3.26790527 2.13734863 -2.57885742 1.44946289 C-1 0 -1 0 0 0 Z " fill="#25BD0B" transform="translate(283,232)"/>
<path d="M0 0 C8.19954545 3.92152174 15.93703941 10.77667908 20 19 C19.67 19.66 19.34 20.32 19 21 C18.01902344 20.48050781 17.03804688 19.96101563 16.02734375 19.42578125 C6.88385879 14.67153408 -2.11902248 10.95293581 -12 8 C-8.9540687 5.96937913 -5.85687334 4.04352805 -2.7421875 2.12109375 C-1.04594593 1.1166082 -1.04594593 1.1166082 0 0 Z " fill="#FADB09" transform="translate(440,121)"/>
<path d="M0 0 C5.28 0 10.56 0 16 0 C15.61880232 5.62266579 15.26439336 8.96611439 11 13 C6.80169371 15.59044431 5.08657099 16 0 16 C0 10.72 0 5.44 0 0 Z " fill="#BDDC05" transform="translate(212,225)"/>
<path d="M0 0 C5.28 0 10.56 0 16 0 C16 5.28 16 10.56 16 16 C7.50232558 14.78604651 7.50232558 14.78604651 3 11 C0.33639623 6.82702076 0 5.09382475 0 0 Z " fill="#85C605" transform="translate(196,225)"/>
<path d="M0 0 C0.19335938 0.60328125 0.38671875 1.2065625 0.5859375 1.828125 C0.97652344 3.02695313 0.97652344 3.02695313 1.375 4.25 C1.63023437 5.03890625 1.88546875 5.8278125 2.1484375 6.640625 C2.95173667 8.86627958 3.89711662 10.90931672 5 13 C1.69702331 12.19749697 -1.53926728 11.23061837 -4.78930664 10.23510742 C-12.471496 7.89778752 -20.01531868 6.03077774 -28 5 C-21.55228414 -2.24128089 -8.88077755 -0.19613987 0 0 Z " fill="#FADB09" transform="translate(411,111)"/>
<path d="M0 0 C0.66 0 1.32 0 2 0 C2 10.23 2 20.46 2 31 C-0.93044547 28.06955453 -3.66948491 25.32223883 -6.3125 22.1875 C-6.82425781 21.58292969 -7.33601563 20.97835938 -7.86328125 20.35546875 C-8.23839844 19.90816406 -8.61351562 19.46085937 -9 19 C-7.39369175 14.75707468 -5.4231838 10.72974893 -3.375 6.6875 C-3.05015625 6.04232422 -2.7253125 5.39714844 -2.390625 4.73242188 C-1.59558044 3.15402459 -0.79804366 1.57688306 0 0 Z " fill="#C5D7D7" transform="translate(423,284)"/>
<path d="M0 0 C4.56400907 0.62643262 7.92530957 2.17530957 11.1875 5.4375 C11 8.9375 11 8.9375 10.1875 12.4375 C7.1875 14.4375 7.1875 14.4375 3.8125 14.25 C0.20595381 13.4416362 -2.00570503 12.83153101 -4.8125 10.4375 C-5.96312678 7.05753385 -6.21683776 5.34131382 -4.75 2.0625 C-2.8125 0.4375 -2.8125 0.4375 0 0 Z " fill="#3C3837" transform="translate(373.8125,241.5625)"/>
<path d="M0 0 C3.5625 0.375 3.5625 0.375 5.5 1.875 C7.01596205 5.44196954 7.11789679 8.55762487 6.5625 12.375 C5.5 14.875 5.5 14.875 3.5625 16.375 C0 16.75 0 16.75 -3.4375 16.375 C-5.4375 14.375 -5.4375 14.375 -5.703125 11.625 C-5.69796875 10.5525 -5.6928125 9.48 -5.6875 8.375 C-5.69265625 7.3025 -5.6978125 6.23 -5.703125 5.125 C-5.2922077 0.87079741 -4.16999085 0.45490809 0 0 Z " fill="#333A41" transform="translate(40.4375,453.625)"/>
<path d="M0 0 C2.87305972 1.40460697 4.74510999 2.74510999 7 5 C6.54545455 10.45454545 6.54545455 10.45454545 4 13 C-0.18831873 13.48326755 -2.55490866 13.21430324 -6.375 11.375 C-9 9 -9 9 -10.0625 5.9375 C-10 3 -10 3 -9 1.125 C-5.89311256 -0.62262419 -3.49984047 -0.36205246 0 0 Z " fill="#3B3837" transform="translate(393,212)"/>
<path d="M0 0 C2.25233235 1.17512992 4.20240366 2.20240366 6 4 C6.3125 6.875 6.3125 6.875 6 10 C4.4375 11.9375 4.4375 11.9375 2 13 C-2.00636961 12.92715692 -4.46045252 12.30995281 -7.9375 10.3125 C-10 8 -10 8 -10.5 4.9375 C-10 2 -10 2 -8.9375 0.0625 C-5.77578164 -1.67134555 -3.41194805 -0.82357367 0 0 Z " fill="#3A3838" transform="translate(406,181)"/>
<path d="M0 0 C3.0625 1.625 3.0625 1.625 5 4 C5 7.625 5 7.625 4 11 C1 13 1 13 -2.375 12.875 C-6.35870133 11.91341692 -8.27587102 11.05432643 -11 8 C-11.52380197 4.79171293 -11.49419849 2.95750956 -10 0.0625 C-6.67159657 -1.70571432 -3.47535171 -0.97849708 0 0 Z " fill="#3A3938" transform="translate(418,149)"/>
<path d="M0 0 C2.375 1.0625 2.375 1.0625 4 3 C4.375 6.5625 4.375 6.5625 4 10 C2 12 2 12 -1.875 12.375 C-4.90967393 12.28655777 -5.91084685 12.05653615 -8.5625 10.375 C-10 8 -10 8 -9.9375 4.875 C-8.23923577 -0.3330103 -4.94358528 -0.50444748 0 0 Z " fill="#3D3B37" transform="translate(379,136)"/>
<path d="M0 0 C2.0625 1.6875 2.0625 1.6875 4 4 C3.90413051 7.93064928 2.71894639 9.38175533 0 12 C-1.42915962 14.28768357 -2.70424795 16.63190143 -4 19 C-8.71346154 17.51153846 -8.71346154 17.51153846 -10.1640625 14.921875 C-10.43992187 14.28765625 -10.71578125 13.6534375 -11 13 C-7.61227103 8.30840284 -4.21814817 3.9700218 0 0 Z " fill="#8BF064" transform="translate(430,27)"/>
<path d="M0 0 C2.5 1.625 2.5 1.625 4 4 C3.85205998 7.6985004 3.64194427 9.35805573 1 12 C-6.01081917 12.55641422 -6.01081917 12.55641422 -9 10.875 C-10.47901666 8.10184376 -10.38601984 6.08815875 -10 3 C-7.71982624 -1.02383605 -4.21281932 -0.51736378 0 0 Z " fill="#3B3937" transform="translate(386,174)"/>
<path d="M0 0 C2.375 1.0625 2.375 1.0625 4 3 C4.43422916 6.47383326 4.60216895 8.8665055 2.9375 12 C-0.23088299 13.63529445 -2.63849919 12.8403752 -6 12 C-7.9375 10.8125 -7.9375 10.8125 -9 9 C-9.39365568 5.85075452 -9.52854531 3.88090884 -7.875 1.125 C-5.10703881 -0.53577671 -3.16909182 -0.38805206 0 0 Z " fill="#3C3937" transform="translate(368,168)"/>
<path d="M0 0 C2.375 1.0625 2.375 1.0625 4 3 C4.375 6.5625 4.375 6.5625 4 10 C2 12 2 12 -1.875 12.375 C-4.95334759 12.29089214 -5.89611727 12.06841058 -8.5625 10.3125 C-10 8 -10 8 -9.9375 5.4375 C-7.91744199 0.18534917 -5.57520286 -0.6826779 0 0 Z " fill="#3C3837" transform="translate(358,236)"/>
<path d="M0 0 C2.54685809 0.0785782 3.81954973 0.17584047 6.0625 1.4375 C7.54151666 4.21065624 7.44851984 6.22434125 7.0625 9.3125 C6.0625 11.25 6.0625 11.25 4.0625 12.3125 C0.11533138 12.50985843 -2.94744212 12.15254911 -6 9.5625 C-7.19891865 6.68509523 -6.9372146 5.23474267 -5.9375 2.3125 C-3.9375 0.3125 -3.9375 0.3125 0 0 Z " fill="#393738" transform="translate(369.9375,205.6875)"/>
<path d="M0 0 C2.375 1.0625 2.375 1.0625 4 3 C4.375 6.5625 4.375 6.5625 4 10 C2 12 2 12 -1.9375 12.3125 C-4.48435809 12.2339218 -5.75704973 12.13665953 -8 10.875 C-9.47901666 8.10184376 -9.38601984 6.08815875 -9 3 C-6.78557651 -0.69070582 -4.02540619 -0.49290688 0 0 Z " fill="#383838" transform="translate(396,142)"/>
<path d="M0 0 C9.19523788 1.19289572 16.61711 8.99378619 22.33203125 15.828125 C24.64615238 18.84136001 26.488861 21.49690504 28 25 C27.2214278 27.88071712 26.11232755 28.88767245 24 31 C23.56300781 29.83984375 23.56300781 29.83984375 23.1171875 28.65625 C18.24127033 16.26712712 11.18861668 7.45907778 0 0 Z " fill="#6ED03C" transform="translate(400,54)"/>
<path d="M0 0 C2 1 2 1 2.88671875 3.109375 C3.15097656 3.98078125 3.41523438 4.8521875 3.6875 5.75 C3.95949219 6.61109375 4.23148437 7.4721875 4.51171875 8.359375 C5.04415666 11.23879921 4.75232016 13.19268449 4 16 C1.03 16.33 -1.94 16.66 -5 17 C-6.23400845 12.06396619 -5.25683943 10.72824374 -3.0625 6.25 C-2.21365234 4.49429688 -2.21365234 4.49429688 -1.34765625 2.703125 C-0.90292969 1.81109375 -0.45820313 0.9190625 0 0 Z " fill="#5DC791" transform="translate(459,207)"/>
<path d="M0 0 C6.40027762 7.93634425 8.99714034 18.93011365 8 29 C6.4450502 31.95865828 4.63779593 33.96622111 2 36 C1 34 1 34 1.9375 30.75 C4.20853151 22.21029934 4.03646983 12.95404499 0.65625 4.76953125 C0 3 0 3 0 0 Z " fill="#6ECF3B" transform="translate(447,30)"/>
<path d="M0 0 C2.64 0 5.28 0 8 0 C8 4.95 8 9.9 8 15 C4.37180514 11.37180514 1.20558373 7.93828859 -2 4 C-1.34 2.68 -0.68 1.36 0 0 Z " fill="#F9F9F9" transform="translate(417,300)"/>
<path d="M0 0 C0.33 0 0.66 0 1 0 C3.2840366 11.99119215 1.98968881 23.29038551 -1 35 C0.65 35 2.3 35 4 35 C4 35.33 4 35.66 4 36 C0.7 36 -2.6 36 -6 36 C-5.47599609 34.58847656 -5.47599609 34.58847656 -4.94140625 33.1484375 C-4.48149655 31.89072526 -4.02187653 30.63290707 -3.5625 29.375 C-3.11003906 28.14523438 -2.65757812 26.91546875 -2.19140625 25.6484375 C-0.19835891 19.54513843 0.13712138 13.97355754 0.0625 7.625 C0.05798828 6.88894531 0.05347656 6.15289062 0.04882812 5.39453125 C0.03715142 3.59631842 0.01922011 1.79814803 0 0 Z " fill="#6DC93F" transform="translate(473,26)"/>
<path d="M0 0 C1.4540625 0.0309375 1.4540625 0.0309375 2.9375 0.0625 C4.0625 4.8125 4.0625 4.8125 2.9375 7.0625 C0.93795254 7.10504356 -1.06291636 7.10330783 -3.0625 7.0625 C-4.0625 6.0625 -4.0625 6.0625 -4.1875 3.5625 C-4.00295237 -0.12845252 -3.76342282 0.07680455 0 0 Z " fill="#FFEA55" transform="translate(245.0625,371.9375)"/>
<path d="M0 0 C1.17571451 3.67410785 1.07366746 7.16929183 1 11 C-0.65 11 -2.3 11 -4 11 C-3.39301257 6.87248551 -1.96189209 3.6678852 0 0 Z " fill="#F2B707" transform="translate(237,337)"/>
<path d="M0 0 C-0.33 1.65 -0.66 3.3 -1 5 C0.65 5 2.3 5 4 5 C4 5.33 4 5.66 4 6 C0.7 6 -2.6 6 -6 6 C-3.84615385 0 -3.84615385 0 0 0 Z " fill="#66B53F" transform="translate(473,56)"/>
<path d="M0 0 C0.66 0.33 1.32 0.66 2 1 C0.83917375 4.48247874 0.09067524 4.88819244 -2.9375 6.75 C-3.64777344 7.19859375 -4.35804688 7.6471875 -5.08984375 8.109375 C-5.72019531 8.40328125 -6.35054688 8.6971875 -7 9 C-7.66 8.67 -8.32 8.34 -9 8 C-6.03 5.36 -3.06 2.72 0 0 Z " fill="#86E562" transform="translate(443,83)"/>
</svg>
